<mxfile host="Electron" agent="Mozilla/5.0 (Windows NT 10.0; Win64; x64) AppleWebKit/537.36 (KHTML, like Gecko) draw.io/28.1.2 Chrome/138.0.7204.243 Electron/37.4.0 Safari/537.36" version="28.1.2">
  <diagram name="Trang-1" id="52kG8tx1CDQko9IMPEkV">
    <mxGraphModel dx="2316" dy="894" grid="1" gridSize="10" guides="1" tooltips="1" connect="1" arrows="1" fold="1" page="1" pageScale="1" pageWidth="827" pageHeight="1169" math="0" shadow="0">
      <root>
        <mxCell id="0" />
        <mxCell id="1" parent="0" />
        <mxCell id="mmPJQqb1xUZa85eZthTn-1" value="" style="rounded=0;whiteSpace=wrap;html=1;dashed=1;dashPattern=12 12;" parent="1" vertex="1">
          <mxGeometry x="110" y="335" width="660" height="630" as="geometry" />
        </mxCell>
        <mxCell id="UozYzHIZplCQqSMyUN3w-3" style="edgeStyle=orthogonalEdgeStyle;rounded=0;orthogonalLoop=1;jettySize=auto;html=1;exitX=0.5;exitY=1;exitDx=0;exitDy=0;entryX=0.5;entryY=0;entryDx=0;entryDy=0;" parent="1" source="UozYzHIZplCQqSMyUN3w-1" target="UozYzHIZplCQqSMyUN3w-2" edge="1">
          <mxGeometry relative="1" as="geometry" />
        </mxCell>
        <mxCell id="UozYzHIZplCQqSMyUN3w-1" value="Boolean BinarySearch&lt;br&gt;(int[]a , int k)" style="ellipse;whiteSpace=wrap;html=1;" parent="1" vertex="1">
          <mxGeometry x="335" y="130" width="130" height="80" as="geometry" />
        </mxCell>
        <mxCell id="UozYzHIZplCQqSMyUN3w-4" style="edgeStyle=orthogonalEdgeStyle;rounded=0;orthogonalLoop=1;jettySize=auto;html=1;exitX=0.5;exitY=1;exitDx=0;exitDy=0;" parent="1" source="UozYzHIZplCQqSMyUN3w-2" edge="1">
          <mxGeometry relative="1" as="geometry">
            <mxPoint x="390" y="360" as="targetPoint" />
          </mxGeometry>
        </mxCell>
        <mxCell id="UozYzHIZplCQqSMyUN3w-2" value="int low &amp;lt;- 0, int high &amp;lt;- a.length-1" style="rounded=0;whiteSpace=wrap;html=1;" parent="1" vertex="1">
          <mxGeometry x="335" y="250" width="120" height="60" as="geometry" />
        </mxCell>
        <mxCell id="UozYzHIZplCQqSMyUN3w-31" style="edgeStyle=orthogonalEdgeStyle;rounded=0;orthogonalLoop=1;jettySize=auto;html=1;exitX=0;exitY=0.5;exitDx=0;exitDy=0;entryX=0.5;entryY=0;entryDx=0;entryDy=0;" parent="1" source="UozYzHIZplCQqSMyUN3w-6" target="UozYzHIZplCQqSMyUN3w-16" edge="1">
          <mxGeometry relative="1" as="geometry" />
        </mxCell>
        <mxCell id="UozYzHIZplCQqSMyUN3w-32" value="FASLE" style="edgeLabel;html=1;align=center;verticalAlign=middle;resizable=0;points=[];" parent="UozYzHIZplCQqSMyUN3w-31" vertex="1" connectable="0">
          <mxGeometry x="-0.5585" relative="1" as="geometry">
            <mxPoint as="offset" />
          </mxGeometry>
        </mxCell>
        <mxCell id="IeXQ8Yti7rOFXjb10gEZ-3" style="edgeStyle=orthogonalEdgeStyle;rounded=0;orthogonalLoop=1;jettySize=auto;html=1;exitX=0;exitY=0.5;exitDx=0;exitDy=0;" edge="1" parent="1" source="UozYzHIZplCQqSMyUN3w-6" target="IeXQ8Yti7rOFXjb10gEZ-2">
          <mxGeometry relative="1" as="geometry" />
        </mxCell>
        <mxCell id="UozYzHIZplCQqSMyUN3w-6" value="low&amp;lt;=high" style="rhombus;whiteSpace=wrap;html=1;" parent="1" vertex="1">
          <mxGeometry x="330" y="360" width="125" height="80" as="geometry" />
        </mxCell>
        <mxCell id="UozYzHIZplCQqSMyUN3w-11" style="edgeStyle=orthogonalEdgeStyle;rounded=0;orthogonalLoop=1;jettySize=auto;html=1;exitX=0.5;exitY=1;exitDx=0;exitDy=0;entryX=0.5;entryY=0;entryDx=0;entryDy=0;" parent="1" source="UozYzHIZplCQqSMyUN3w-7" target="UozYzHIZplCQqSMyUN3w-13" edge="1">
          <mxGeometry relative="1" as="geometry">
            <mxPoint x="400" y="629.9999999999999" as="targetPoint" />
          </mxGeometry>
        </mxCell>
        <mxCell id="UozYzHIZplCQqSMyUN3w-7" value="mid &amp;lt;- low(high - low)/2" style="rounded=0;whiteSpace=wrap;html=1;" parent="1" vertex="1">
          <mxGeometry x="250" y="500" width="240" height="60" as="geometry" />
        </mxCell>
        <mxCell id="UozYzHIZplCQqSMyUN3w-8" style="edgeStyle=orthogonalEdgeStyle;rounded=0;orthogonalLoop=1;jettySize=auto;html=1;exitX=0;exitY=1;exitDx=0;exitDy=0;entryX=0.332;entryY=-0.016;entryDx=0;entryDy=0;entryPerimeter=0;" parent="1" source="UozYzHIZplCQqSMyUN3w-6" target="UozYzHIZplCQqSMyUN3w-7" edge="1">
          <mxGeometry relative="1" as="geometry" />
        </mxCell>
        <mxCell id="UozYzHIZplCQqSMyUN3w-9" value="TRUE" style="edgeLabel;html=1;align=center;verticalAlign=middle;resizable=0;points=[];" parent="UozYzHIZplCQqSMyUN3w-8" vertex="1" connectable="0">
          <mxGeometry x="-0.5462" y="-1" relative="1" as="geometry">
            <mxPoint as="offset" />
          </mxGeometry>
        </mxCell>
        <mxCell id="UozYzHIZplCQqSMyUN3w-14" style="edgeStyle=orthogonalEdgeStyle;rounded=0;orthogonalLoop=1;jettySize=auto;html=1;exitX=0;exitY=0.5;exitDx=0;exitDy=0;entryX=1;entryY=0.25;entryDx=0;entryDy=0;" parent="1" source="UozYzHIZplCQqSMyUN3w-13" target="UozYzHIZplCQqSMyUN3w-15" edge="1">
          <mxGeometry relative="1" as="geometry">
            <mxPoint x="230" y="640" as="targetPoint" />
          </mxGeometry>
        </mxCell>
        <mxCell id="UozYzHIZplCQqSMyUN3w-29" value="TRUE" style="edgeLabel;html=1;align=center;verticalAlign=middle;resizable=0;points=[];" parent="UozYzHIZplCQqSMyUN3w-14" vertex="1" connectable="0">
          <mxGeometry x="-0.108" y="2" relative="1" as="geometry">
            <mxPoint as="offset" />
          </mxGeometry>
        </mxCell>
        <mxCell id="UozYzHIZplCQqSMyUN3w-19" style="edgeStyle=orthogonalEdgeStyle;rounded=0;orthogonalLoop=1;jettySize=auto;html=1;exitX=0.5;exitY=1;exitDx=0;exitDy=0;entryX=0.5;entryY=0;entryDx=0;entryDy=0;" parent="1" source="UozYzHIZplCQqSMyUN3w-13" target="UozYzHIZplCQqSMyUN3w-17" edge="1">
          <mxGeometry relative="1" as="geometry" />
        </mxCell>
        <mxCell id="UozYzHIZplCQqSMyUN3w-30" value="FALSE" style="edgeLabel;html=1;align=center;verticalAlign=middle;resizable=0;points=[];" parent="UozYzHIZplCQqSMyUN3w-19" vertex="1" connectable="0">
          <mxGeometry x="-0.631" y="2" relative="1" as="geometry">
            <mxPoint as="offset" />
          </mxGeometry>
        </mxCell>
        <mxCell id="UozYzHIZplCQqSMyUN3w-13" value="a[mid] = k" style="rhombus;whiteSpace=wrap;html=1;" parent="1" vertex="1">
          <mxGeometry x="410" y="610" width="80" height="80" as="geometry" />
        </mxCell>
        <mxCell id="IeXQ8Yti7rOFXjb10gEZ-1" style="edgeStyle=orthogonalEdgeStyle;rounded=0;orthogonalLoop=1;jettySize=auto;html=1;exitX=0;exitY=0.5;exitDx=0;exitDy=0;" edge="1" parent="1" source="UozYzHIZplCQqSMyUN3w-15">
          <mxGeometry relative="1" as="geometry">
            <mxPoint x="-80" y="660.2857142857144" as="targetPoint" />
          </mxGeometry>
        </mxCell>
        <mxCell id="UozYzHIZplCQqSMyUN3w-15" value="true" style="rounded=0;whiteSpace=wrap;html=1;" parent="1" vertex="1">
          <mxGeometry x="170" y="630" width="120" height="60" as="geometry" />
        </mxCell>
        <mxCell id="UozYzHIZplCQqSMyUN3w-16" value="return" style="ellipse;whiteSpace=wrap;html=1;" parent="1" vertex="1">
          <mxGeometry x="-140" y="740" width="120" height="80" as="geometry" />
        </mxCell>
        <mxCell id="UozYzHIZplCQqSMyUN3w-20" style="edgeStyle=orthogonalEdgeStyle;rounded=0;orthogonalLoop=1;jettySize=auto;html=1;exitX=1;exitY=0.5;exitDx=0;exitDy=0;entryX=0.5;entryY=1;entryDx=0;entryDy=0;" parent="1" source="UozYzHIZplCQqSMyUN3w-17" target="UozYzHIZplCQqSMyUN3w-22" edge="1">
          <mxGeometry relative="1" as="geometry">
            <mxPoint x="610" y="760" as="targetPoint" />
          </mxGeometry>
        </mxCell>
        <mxCell id="UozYzHIZplCQqSMyUN3w-21" value="TRUE" style="edgeLabel;html=1;align=center;verticalAlign=middle;resizable=0;points=[];" parent="UozYzHIZplCQqSMyUN3w-20" vertex="1" connectable="0">
          <mxGeometry x="-0.5113" y="-4" relative="1" as="geometry">
            <mxPoint as="offset" />
          </mxGeometry>
        </mxCell>
        <mxCell id="UozYzHIZplCQqSMyUN3w-24" style="edgeStyle=orthogonalEdgeStyle;rounded=0;orthogonalLoop=1;jettySize=auto;html=1;exitX=1;exitY=0;exitDx=0;exitDy=0;entryX=0.5;entryY=1;entryDx=0;entryDy=0;" parent="1" source="UozYzHIZplCQqSMyUN3w-17" target="UozYzHIZplCQqSMyUN3w-25" edge="1">
          <mxGeometry relative="1" as="geometry">
            <mxPoint x="570" y="780" as="targetPoint" />
          </mxGeometry>
        </mxCell>
        <mxCell id="UozYzHIZplCQqSMyUN3w-26" value="FALSE" style="edgeLabel;html=1;align=center;verticalAlign=middle;resizable=0;points=[];" parent="UozYzHIZplCQqSMyUN3w-24" vertex="1" connectable="0">
          <mxGeometry x="0.1174" y="2" relative="1" as="geometry">
            <mxPoint as="offset" />
          </mxGeometry>
        </mxCell>
        <mxCell id="UozYzHIZplCQqSMyUN3w-17" value="a[mid]&amp;lt;k" style="rhombus;whiteSpace=wrap;html=1;" parent="1" vertex="1">
          <mxGeometry x="410" y="790" width="80" height="80" as="geometry" />
        </mxCell>
        <mxCell id="UozYzHIZplCQqSMyUN3w-28" style="edgeStyle=orthogonalEdgeStyle;rounded=0;orthogonalLoop=1;jettySize=auto;html=1;exitX=0.5;exitY=0;exitDx=0;exitDy=0;entryX=1;entryY=0;entryDx=0;entryDy=0;" parent="1" source="UozYzHIZplCQqSMyUN3w-22" target="UozYzHIZplCQqSMyUN3w-6" edge="1">
          <mxGeometry relative="1" as="geometry">
            <Array as="points">
              <mxPoint x="710" y="380" />
            </Array>
          </mxGeometry>
        </mxCell>
        <mxCell id="UozYzHIZplCQqSMyUN3w-22" value="low &amp;lt;- mid +1" style="rounded=0;whiteSpace=wrap;html=1;" parent="1" vertex="1">
          <mxGeometry x="640" y="730" width="120" height="60" as="geometry" />
        </mxCell>
        <mxCell id="UozYzHIZplCQqSMyUN3w-25" value="high &amp;lt;- mid -1" style="rounded=0;whiteSpace=wrap;html=1;" parent="1" vertex="1">
          <mxGeometry x="490" y="690" width="120" height="60" as="geometry" />
        </mxCell>
        <mxCell id="UozYzHIZplCQqSMyUN3w-27" style="edgeStyle=orthogonalEdgeStyle;rounded=0;orthogonalLoop=1;jettySize=auto;html=1;entryX=0.952;entryY=0.616;entryDx=0;entryDy=0;entryPerimeter=0;" parent="1" source="UozYzHIZplCQqSMyUN3w-25" target="UozYzHIZplCQqSMyUN3w-6" edge="1">
          <mxGeometry relative="1" as="geometry">
            <Array as="points">
              <mxPoint x="600" y="409" />
            </Array>
          </mxGeometry>
        </mxCell>
        <mxCell id="IeXQ8Yti7rOFXjb10gEZ-2" value="false" style="rounded=0;whiteSpace=wrap;html=1;" vertex="1" parent="1">
          <mxGeometry x="-50" y="370" width="120" height="60" as="geometry" />
        </mxCell>
      </root>
    </mxGraphModel>
  </diagram>
</mxfile>
